<?xml version="1.0" encoding="utf-8"?>
<!-- Generator: Adobe Illustrator 27.5.0, SVG Export Plug-In . SVG Version: 6.00 Build 0)  -->
<svg version="1.1" id="PRINT" xmlns="http://www.w3.org/2000/svg" xmlns:xlink="http://www.w3.org/1999/xlink" x="0px" y="0px"
	 viewBox="0 0 500 500" style="enable-background:new 0 0 100 100;" xml:space="preserve">
<g>
	

	<g id="CUSTOM-group_00000151522638860398832720000009746335146705586097_">
		<text transform="matrix(0.9998 0.0175 -0.0175 0.9998 134.5176 275.2739)"><tspan x="0" y="0" style="fill:#111135; font-family:'Poppins-Regular'; font-size:18.5414px;">M</tspan><tspan x="16.283" y="-0.248" style="fill:#111135; font-family:'Poppins-Regular'; font-size:18.5414px;">u</tspan><tspan x="28.47" y="-0.442" style="fill:#111135; font-family:'Poppins-Regular'; font-size:18.5414px;">s</tspan><tspan x="38.47" y="-0.572" style="fill:#111135; font-family:'Poppins-Regular'; font-size:18.5414px;">i</tspan><tspan x="43.352" y="-0.716" style="fill:#111135; font-family:'Poppins-Regular'; font-size:18.5414px;">c</tspan><tspan x="54.927" y="-0.862" style="fill:#111135; font-family:'Poppins-Regular'; font-size:18.5414px;"> </tspan><tspan x="60.198" y="-1.02" style="fill:#111135; font-family:'Poppins-Regular'; font-size:18.5414px;">p</tspan><tspan x="73.053" y="-1.176" style="fill:#111135; font-family:'Poppins-Regular'; font-size:18.5414px;">l</tspan><tspan x="77.935" y="-1.33" style="fill:#111135; font-family:'Poppins-Regular'; font-size:18.5414px;">a</tspan><tspan x="90.789" y="-1.536" style="fill:#111135; font-family:'Poppins-Regular'; font-size:18.5414px;">y</tspan><tspan x="101.549" y="-1.673" style="fill:#111135; font-family:'Poppins-Regular'; font-size:18.5414px;">l</tspan><tspan x="106.432" y="-1.758" style="fill:#111135; font-family:'Poppins-Regular'; font-size:18.5414px;">i</tspan><tspan x="111.314" y="-1.888" style="fill:#111135; font-family:'Poppins-Regular'; font-size:18.5414px;">s</tspan><tspan x="121.313" y="-2.036" style="fill:#111135; font-family:'Poppins-Regular'; font-size:18.5414px;">t</tspan><tspan x="128.385" y="-2.144" style="fill:#111135; font-family:'Poppins-Regular'; font-size:18.5414px;"> </tspan><tspan x="133.656" y="-2.247" style="fill:#111135; font-family:'Poppins-Regular'; font-size:18.5414px;">f</tspan><tspan x="140.077" y="-2.409" style="fill:#111135; font-family:'Poppins-Regular'; font-size:18.5414px;">o</tspan><tspan x="152.265" y="-2.579" style="fill:#111135; font-family:'Poppins-Regular'; font-size:18.5414px;">r</tspan><tspan x="159.502" y="-2.687" style="fill:#111135; font-family:'Poppins-Regular'; font-size:18.5414px;"> </tspan><tspan x="164.774" y="-2.82" style="fill:#111135; font-family:'Poppins-Regular'; font-size:18.5414px;">k</tspan><tspan x="174.645" y="-2.949" style="fill:#111135; font-family:'Poppins-Regular'; font-size:18.5414px;">i</tspan><tspan x="179.526" y="-3.103" style="fill:#111135; font-family:'Poppins-Regular'; font-size:18.5414px;">d</tspan><tspan x="192.38" y="-3.303" style="fill:#111135; font-family:'Poppins-Regular'; font-size:18.5414px;">s</tspan></text>
		
			<text transform="matrix(1 0 0 1 134.1758 251.2021)" style="fill:#111135; font-family:'RammettoOne-Regular'; font-size:36.3813px;">PIANOPLAYS</text>
		<g id="CUSTOM-group">
			
			<g>
				
			</g>
		</g>
		<path id="CUSTOM" style="fill:#111135;" d="M430.929,270.62h-82.444c-1.381,0-2.5-1.119-2.5-2.5c0-1.381,1.119-2.5,2.5-2.5h82.444
			c1.381,0,2.5,1.119,2.5,2.5C433.429,269.5,432.31,270.62,430.929,270.62z"/>
	</g>
</g>
</svg>
